<?xml version="1.0"?>
<svg xmlns="http://www.w3.org/2000/svg" xmlns:xlink="http://www.w3.org/1999/xlink" xmlns:svgjs="http://svgjs.com/svgjs" version="1.1" width="512" height="512" x="0" y="0" viewBox="0 0 512 512" style="enable-background:new 0 0 512 512" xml:space="preserve" class=""><g transform="matrix(-1.8369701987210297e-16,1,-1,-1.8369701987210297e-16,512,-2.842170943040401e-14)"><g xmlns="http://www.w3.org/2000/svg"><path d="m180 236h-20v-20c0-11.046-8.954-20-20-20s-20 8.954-20 20v40c0 11.046 8.954 20 20 20h40c11.046 0 20-8.954 20-20s-8.954-20-20-20z" fill="#ffffff" data-original="#000000" class=""/><path d="m395.44 276c8.256 23.278 30.487 40 56.56 40 33.084 0 60-26.916 60-60s-26.916-60-60-60c-26.073 0-48.303 16.722-56.56 40h-43.44v-156h43.44c8.256 23.278 30.487 40 56.56 40 33.084 0 60-26.916 60-60s-26.916-60-60-60c-26.073 0-48.303 16.722-56.56 40h-63.44c-11.046 0-20 8.954-20 20v176h-33.435c-9.735-67.755-68.159-120-138.565-120-77.196 0-140 62.804-140 140s62.804 140 140 140c70.406 0 128.83-52.245 138.565-120h33.435v176c0 11.046 8.954 20 20 20h63.44c8.256 23.278 30.487 40 56.56 40 33.084 0 60-26.916 60-60s-26.916-60-60-60c-26.073 0-48.303 16.722-56.56 40h-43.44v-156zm56.56-236c11.028 0 20 8.972 20 20s-8.972 20-20 20-20-8.972-20-20 8.972-20 20-20zm0 392c11.028 0 20 8.972 20 20s-8.972 20-20 20-20-8.972-20-20 8.972-20 20-20zm0-196c11.028 0 20 8.972 20 20s-8.972 20-20 20-20-8.972-20-20 8.972-20 20-20zm-312 120c-55.14 0-100-44.86-100-100s44.86-100 100-100 100 44.86 100 100-44.86 100-100 100z" fill="#ffffff" data-original="#000000" class=""/></g></g></svg>
