<?xml version="1.0"?>
<svg xmlns="http://www.w3.org/2000/svg" xmlns:xlink="http://www.w3.org/1999/xlink" xmlns:svgjs="http://svgjs.com/svgjs" version="1.1" width="512" height="512" x="0" y="0" viewBox="0 0 512 512" style="enable-background:new 0 0 512 512" xml:space="preserve" class=""><g><g xmlns="http://www.w3.org/2000/svg"><path d="m316 330c0-33.084-26.916-60-60-60s-60 26.916-60 60 26.916 60 60 60 60-26.916 60-60zm-60 30c-16.542 0-30-13.458-30-30s13.458-30 30-30 30 13.458 30 30-13.458 30-30 30z" fill="#ffffff" data-original="#000000"/><path d="m466 330c0-33.084-26.916-60-60-60s-60 26.916-60 60 26.916 60 60 60 60-26.916 60-60zm-60 30c-16.542 0-30-13.458-30-30s13.458-30 30-30 30 13.458 30 30-13.458 30-30 30z" fill="#ffffff" data-original="#000000"/><path d="m467 390h-422c-24.813 0-45 20.187-45 45v77h512v-77c0-24.813-20.187-45-45-45zm-437 92v-47c0-8.271 6.729-15 15-15h108.58c-1.665 4.695-2.58 9.742-2.58 15v47zm301 0h-150v-47c0-8.271 6.729-15 15-15h45v30h30v-30h45c8.271 0 15 6.729 15 15zm151 0h-121v-47c0-5.258-.915-10.305-2.58-15h108.58c8.271 0 15 6.729 15 15z" fill="#ffffff" data-original="#000000"/><path d="m166 330c0-33.084-26.916-60-60-60s-60 26.916-60 60 26.916 60 60 60 60-26.916 60-60zm-60 30c-16.542 0-30-13.458-30-30s13.458-30 30-30 30 13.458 30 30-13.458 30-30 30z" fill="#ffffff" data-original="#000000"/><path d="m391 135c0-74.439-60.561-135-135-135s-135 60.561-135 135 60.561 135 135 135 135-60.561 135-135zm-135 105c-57.897 0-105-47.103-105-105s47.103-105 105-105 105 47.103 105 105-47.103 105-105 105z" fill="#ffffff" data-original="#000000"/><path d="m241 143.787-30-30-21.213 21.213 51.213 51.213 81.213-81.213-21.213-21.213z" fill="#ffffff" data-original="#000000"/></g></g></svg>
