<?xml version="1.0"?>
<svg xmlns="http://www.w3.org/2000/svg" xmlns:xlink="http://www.w3.org/1999/xlink" xmlns:svgjs="http://svgjs.com/svgjs" version="1.1" width="512" height="512" x="0" y="0" viewBox="0 0 512 512" style="enable-background:new 0 0 512 512" xml:space="preserve" class=""><g><g xmlns="http://www.w3.org/2000/svg"><path d="m469.333 310.397v-271.507h-98.136v-38.89h-86.091v38.89h-100.879v-38.89h-86.091v38.89h-98.136v392.11h290.353c13.889 46.779 57.266 81 108.493 81 62.393 0 113.154-50.761 113.154-113.154 0-35.762-16.681-67.698-42.667-88.449zm-70.487 171.603c-45.852 0-83.154-37.303-83.154-83.154s37.303-83.154 83.154-83.154 83.154 37.303 83.154 83.154-37.303 83.154-83.154 83.154zm-368.846-413.11h68.136v38.89h86.091v-38.89h100.879v38.89h86.091v-38.89h68.136v81.168h-409.333zm124.227-38.89v47.78h-26.091v-47.78zm186.97 0v47.78h-26.091v-47.78zm-311.197 150.058h409.333v113.129c-12.578-4.836-26.227-7.495-40.487-7.495-62.394 0-113.013 50.141-113.013 115.308h-255.833z" fill="#ffffff" data-original="#000000" class=""/><path d="m446.019 413.846v-30h-32.173v-48.941h-30v78.941z" fill="#ffffff" data-original="#000000" class=""/><path d="m113.333 234.334h48.533v30h-48.533z" fill="#ffffff" data-original="#000000" class=""/><path d="m210.4 234.334h48.533v30h-48.533z" fill="#ffffff" data-original="#000000" class=""/><path d="m307.467 234.334h48.533v30h-48.533z" fill="#ffffff" data-original="#000000" class=""/><path d="m113.333 305h48.533v30h-48.533z" fill="#ffffff" data-original="#000000" class=""/><path d="m210.4 305h48.533v30h-48.533z" fill="#ffffff" data-original="#000000" class=""/></g></g></svg>
