<svg id="Layer_1" enable-background="new 0 0 68 68" height="512" viewBox="0 0 68 68" width="512" xmlns="http://www.w3.org/2000/svg"><g><g><g><path d="m39.3 27.3c.3.2.7.1 1.1-.1.3-.2.5-.6.4-1l-1-5.9 4.3-4.1c.3-.3.4-.7.3-1-.1-.4-.4-.6-.8-.7l-5.9-.9-2.6-5.3c-.3-.7-1.5-.7-1.8 0l-2.6 5.3-5.9.9c-.4.1-.7.3-.8.7s0 .8.3 1l4.3 4.1-1 5.9c-.1.4.1.8.4 1s.7.3 1.1.1l5.3-2.8zm-9.7-2.7.8-4.4c.1-.3-.1-.7-.3-.9l-3.2-3.1 4.4-.6c.3 0 .6-.3.8-.5l2-4 2 4c.1.3.4.5.8.5l4.4.6-3.2 3.1c-.2.2-.3.6-.3.9l.8 4.4-3.9-2.1c-.1-.1-.3-.1-.5-.1s-.3 0-.5.1z" fill="rgb(255,255,255)"/></g></g><g><g><path d="m61.9 65h-12v-9.2c0-.6-.4-1-1-1h-4.6v-5.1c0-.6-.4-1-1-1h-5.6v-11.3c0-.1.2-.3.3-.3 4.8-1.4 9.1-5.3 11.9-10.9 6.4-3.4 10.3-10 10.3-17.3v-1.3c0-.6-.4-1-1-1h-5.4c0-1.6-.1-3.7-.2-4.7-.1-.5-.5-.9-1-.9h-37.3c-.5 0-.9.4-1 .9-.1 1-.2 3.1-.2 4.7h-5.5c-.6 0-1 .4-1 1v1.4c0 7.4 3.9 14 10.3 17.3 2.9 5.6 7.1 9.4 11.9 10.9.2 0 .3.2.3.3v11.3h-5.6c-.6 0-1 .4-1 1v5.1h-4.6c-.6 0-1 .4-1 1v9.1h-11.8c-.6 0-1 .4-1 1s.4 1 1 1h55.8c.6 0 1-.4 1-1s-.5-1-1-1zm-3.5-56c0 5.6-2.6 10.8-6.9 14 1.6-4.2 2.5-9.1 2.5-14.4h4.4zm-48.8 0v-.4h4.4c0 5.2.9 10.1 2.5 14.3-4.3-3.2-6.9-8.3-6.9-13.9zm20.9 26.2c-4.4-1.3-8.3-4.9-10.9-10.1-2.3-4.6-3.6-10.3-3.6-16.5 0-1.4.1-4.1.2-5.6h35.6c.1 1.6.2 4.3.2 5.6 0 6.2-1.2 11.9-3.5 16.5-2.6 5.2-6.5 8.8-10.9 10.1-1.1.3-1.8 1.2-1.8 2.2v11.3h-3.5v-11.3c-.1-1-.8-1.9-1.8-2.2zm-4.9 15.6h16.7v4.1h-16.7zm-5.5 14.2v-8.2h27.9v8.2z" fill="rgb(255,255,255)"/></g></g></g></svg>